<?xml version="1.0" encoding="utf-8"?>
<!-- Generator: Adobe Illustrator 22.1.0, SVG Export Plug-In . SVG Version: 6.00 Build 0)  -->
<svg version="1.1" id="Layer_1" xmlns="http://www.w3.org/2000/svg" xmlns:xlink="http://www.w3.org/1999/xlink" x="0px" y="0px"
	 viewBox="0 0 32 156" style="enable-background:new 0 0 32 156;" xml:space="preserve">
<path d="M17.3,109.1V28.3c7-0.8,12.5-6.7,12.5-14c0-7.8-6.3-14.1-14-14.1c-7.7,0-14,6.3-14,14.1c0,7.2,5.5,13.2,12.5,14v80.8
	c-8.1,0.8-14.5,7.6-14.5,16c0,3.6,2.1,9,6.6,17c3.1,5.5,6.1,10.1,6.2,10.3l2.2,3.3c0.2,0.3,0.6,0.5,1,0.5s0.8-0.2,1-0.5l2.2-3.3
	c0.1-0.2,3.1-4.8,6.2-10.3c4.5-8,6.6-13.5,6.6-17C31.8,116.7,25.4,109.9,17.3,109.1z M5.8,14.4c0-5.5,4.5-10.1,10-10.1
	s10,4.5,10,10.1c0,5.5-4.5,10.1-10,10.1S5.8,19.9,5.8,14.4z M15.8,133.9c-4.9,0-8.9-4-8.9-8.9c0-4.9,4-8.9,8.9-8.9s8.9,4,8.9,8.9
	C24.7,129.9,20.7,133.9,15.8,133.9z"/>
</svg>
