<?xml version="1.0" encoding="utf-8"?>
<!-- Generator: Adobe Illustrator 22.1.0, SVG Export Plug-In . SVG Version: 6.00 Build 0)  -->
<svg version="1.1" id="Capa_1" xmlns="http://www.w3.org/2000/svg" xmlns:xlink="http://www.w3.org/1999/xlink" x="0px" y="0px"
	 viewBox="0 0 32 32" style="enable-background:new 0 0 32 32;" xml:space="preserve">
<g>
	<path d="M20.7,20.1c1.4,0.1,2.3,0.7,2.6,1.9c0.3,1.1,0.1,2.4-0.7,3.2c-0.8-0.9-1-2.2-1.6-3.3c0.2,1,0.4,2.1,0.6,3.1
		c0,0.2,0.2,0.3,0.3,0.4c0.7,1.1,1.5,2.1,2.2,3.2c-0.4,0.2-0.9,0.5-1.3,0.7c-0.1,0.1-0.3,0.1-0.4,0.1c-0.6-0.2-1.1-0.4-1.5-0.9
		c-0.2-0.2-0.3-0.4-0.4-0.6c-0.8-0.9-1.2-2-1.4-3.3c-0.2-1.3-0.5-2.5-0.7-3.8c-0.3,0.2-0.6,0.4-0.8,0.7c-0.1,0.1-0.1,0.2,0,0.3
		c0.3,1.5,0.6,3,1,4.5c0,0.2,0.1,0.3,0.2,0.4c0.4,0.6,0.9,1.3,1.4,1.9c-0.1,0-0.2,0.1-0.2,0.1c-0.7,0-1.3,0.2-1.8,0.6
		c-0.3,0.2-0.4,0.2-0.7-0.1c-0.7-0.9-1.1-1.9-1.3-3.1c-0.2-1.2-0.5-2.4-0.8-3.6c-0.1-0.3-0.2-0.6-0.3-0.9c-1.5-2.7-3-5.5-4.5-8.2
		c-0.2-0.3-0.3-0.4-0.6-0.5c-1.8-0.6-3.5-1.2-5.3-1.7c-0.4-0.1-0.8-0.4-1-0.9c-1-1.8-2.1-3.6-3.1-5.4C-0.2,3.9,0,2.9,0.6,2.4
		c1.4,2.2,2.7,4.4,4,6.7c0.6,1.1,1.4,1.6,2.5,1.4c0.6-0.1,1.2-0.1,1.9-0.1c0.1,0,0.2,0,0.4-0.1c-1-0.2-1.9-0.4-2.9-0.6
		C6.1,9.7,5.7,9.4,5.5,9C4.2,6.9,2.9,4.8,1.7,2.7C1.2,1.9,1.3,0.9,1.9,0.3c0.6-0.5,1.5-0.4,1.9,0.4C5,2.6,6.1,4.5,7.2,6.3
		c0.1,0.2,0.3,0.3,0.5,0.3c2,0.4,3.9,0.8,5.9,1.2c1,0.2,1.8,0.9,2.4,1.9c1.4,2.7,2.8,5.5,4.2,8.2c0.2,0.5,0.3,1.1,0.5,1.6
		C20.6,19.8,20.7,20,20.7,20.1z"/>
	<path d="M32,30.8c0,0.6-0.5,0.9-0.9,0.7c-0.8-0.5-1.4-0.3-2.2,0.1c-0.9,0.6-1.9,0.5-2.8,0c-0.7-0.5-1.4-0.5-2.2,0
		c-1,0.6-2,0.6-2.9,0c-0.7-0.5-1.4-0.5-2.1,0c-1,0.6-2,0.6-3,0c-0.7-0.4-1.4-0.5-2.1,0c-1,0.6-2,0.6-3,0c-0.7-0.4-1.4-0.4-2.1,0
		c-1,0.6-1.9,0.6-2.9,0c-0.4-0.3-0.6-0.7-0.4-1.1c0.2-0.4,0.5-0.5,1-0.3c0.6,0.3,1.2,0.3,1.8-0.1c1.1-0.7,2.1-0.7,3.2,0
		c0.6,0.4,1.3,0.4,1.9,0c1-0.7,2.1-0.7,3.1,0c0.7,0.4,1.3,0.4,1.9,0c1-0.7,2.1-0.7,3.1,0c0.6,0.4,1.3,0.4,1.9,0
		c1.1-0.7,2.1-0.7,3.2,0c0.7,0.4,1.3,0.4,1.9,0c1-0.6,2-0.6,3-0.1C31.8,30.2,32,30.4,32,30.8z"/>
</g>
</svg>
