<?xml version="1.0" encoding="utf-8"?>
<!-- Generator: Adobe Illustrator 22.1.0, SVG Export Plug-In . SVG Version: 6.00 Build 0)  -->
<svg version="1.1" id="Layer_1" xmlns="http://www.w3.org/2000/svg" xmlns:xlink="http://www.w3.org/1999/xlink" x="0px" y="0px"
	 viewBox="0 0 27.3 77" style="enable-background:new 0 0 27.3 77;" xml:space="preserve">
<g>
	<path d="M13.6,27.3C6.1,27.3,0,21.2,0,13.6C0,6.1,6.1,0,13.6,0s13.6,6.1,13.6,13.6C27.3,21.2,21.2,27.3,13.6,27.3z M13.6,4
		C8.3,4,4,8.3,4,13.6c0,5.3,4.3,9.6,9.6,9.6s9.6-4.3,9.6-9.6C23.3,8.3,19,4,13.6,4z"/>
	<circle cx="13.6" cy="65.4" r="11.6"/>
	<path d="M13.6,49c-1.4,0-2.5-1.1-2.5-2.5v-12c0-1.4,1.1-2.5,2.5-2.5s2.5,1.1,2.5,2.5v12C16.1,47.9,15,49,13.6,49z"/>
</g>
</svg>
